# xmcd CD database file
#
# Track frame offsets:
#	150
#	28318
#	57335
#	84300
#	92228
#	131028
#	161873
#	186513
#	192125
#	216240
#	240470
#
# Disc length: 3589 seconds
#
# Revision: 0
# Processed by: cddbd v1.5.2PL0 Copyright (c) Steve Scherf et al.
# Submitted via: CDex 1.51
#
DISCID=9f0e030b
DTITLE=Bob Wilber - Live at the vineyard
DYEAR=1900
DGENRE=Jazz
TTITLE0=Down in honky-tonk town
TTITLE1=Georgia cabin
TTITLE2=I can't beleive that you're in love with me
TTITLE3=Wilber remarks
TTITLE4=Promenade aux Champs-Elysées
TTITLE5=China boy
TTITLE6=Indian summer
TTITLE7=Wilber remarks
TTITLE8=Margie
TTITLE9=Chloé
TTITLE10=Oh, Lady be good
EXTD=
EXTT0=
EXTT1=
EXTT2=
EXTT3=
EXTT4=
EXTT5=
EXTT6=
EXTT7=
EXTT8=
EXTT9=
EXTT10=
PLAYORDER=
